Coordinates
version=1
nRows=11
nColumns=63
inDegrees=yes

Units are S.I. units (second, meters, Newtons, ...)
If the header above contains a line with 'inDegrees', this indicates whether rotational values are in degrees (yes) or radians (no).

endheader
time	pelvis_tilt	pelvis_list	pelvis_rotation	pelvis_tx	pelvis_ty	pelvis_tz	hip_flexion_r	hip_adduction_r	hip_rotation_r	knee_angle_r	knee_angle_r_beta	ankle_angle_r	subtalar_angle_r	mtp_angle_r	hip_flexion_l	hip_adduction_l	hip_rotation_l	knee_angle_l	knee_angle_l_beta	ankle_angle_l	subtalar_angle_l	mtp_angle_l	L5_S1_Flex_Ext	L5_S1_Lat_Bending	L5_S1_axial_rotation	L4_L5_Flex_Ext	L4_L5_Lat_Bending	L4_L5_axial_rotation	L3_L4_Flex_Ext	L3_L4_Lat_Bending	L3_L4_axial_rotation	L2_L3_Flex_Ext	L2_L3_Lat_Bending	L2_L3_axial_rotation	L1_L2_Flex_Ext	L1_L2_Lat_Bending	L1_L2_axial_rotation	L1_T12_Flex_Ext	L1_T12_Lat_Bending	L1_T12_axial_rotation	Abs_r3	Abs_r2	Abs_r1	Abs_t1	Abs_t2	neck_flexion	neck_bending	neck_rotation	arm_flex_r	arm_add_r	arm_rot_r	elbow_flex_r	pro_sup_r	wrist_flex_r	wrist_dev_r	arm_flex_l	arm_add_l	arm_rot_l	elbow_flex_l	pro_sup_l	wrist_flex_l	wrist_dev_l
      3.11864407	     -1.87947483	     -4.07656593	     86.05507471	      0.25119454	      0.87432942	      0.64511143	     -1.79024182	     -1.18073769	    -16.94671347	      8.19390744	      0.14301066	     25.27921092	     17.43734983	      0.00000000	      0.88795987	     -3.19131539	     -2.08858951	     14.34135536	      0.25030387	     24.83302166	      2.25363705	      0.00000000	      0.02424667	      0.15951425	      1.17476594	      0.04502849	      0.21215396	      1.24818881	      0.03983485	      0.38784296	      1.24818881	      0.02771152	      0.38784296	      1.02792019	      0.02251546	      0.32528147	      0.95449732	      0.01385455	      0.24708758	      0.88107445	      0.17319153	      1.80445714	      6.53369571	      0.00000000	      0.00000000	     18.24482267	      4.47901602	      3.64215743	     -7.85317424	    -14.85319238	     29.08619824	     54.10119621	     75.24920022	     -0.57197186	     12.10471839	      1.77006525	    -19.05929914	     56.87986914	     48.73969135	     89.39922078	     -8.88743439	     16.21386899
      3.13559322	     -1.83908464	     -3.64747497	     86.11589387	      0.25421247	      0.87490768	      0.64285506	     -2.48772138	     -0.97221694	    -17.24960672	      8.12057322	      0.14173074	     25.09203565	     17.36897436	      0.00000000	      0.13746724	     -3.36261993	     -2.09456181	     13.93214014	      0.24316172	     24.69011026	      2.42959386	      0.00000000	     -0.02422237	      0.17598459	      1.32471674	     -0.04498336	      0.23405951	      1.40751153	     -0.03979493	      0.42788894	      1.40751153	     -0.02768375	      0.42788894	      1.15912714	     -0.02249289	      0.35886778	      1.07633235	     -0.01384066	      0.27260013	      0.99353755	     -0.17301797	      1.99077291	      7.36767707	      0.00000000	      0.00000000	     17.73829504	      4.41903176	      2.78674347	     -8.73278236	    -14.45483400	     27.52330682	     54.12978268	     75.24726391	     -0.34720362	     11.89694027	      1.94443228	    -18.80211120	     56.57868822	     48.56113607	     89.36143472	     -8.52763063	     16.59635354
      3.15254237	     -1.82702148	     -3.24325889	     85.77898137	      0.25749859	      0.87530203	      0.64059339	     -3.07227138	     -0.83544215	    -17.21000809	      8.10542945	      0.14146643	     24.90283080	     17.31508226	      0.00000000	     -0.58981469	     -3.51879965	     -2.72222608	     13.66520864	      0.23850288	     24.64705533	      2.86360921	      0.00000000	     -0.05445155	      0.19014014	      1.66766593	     -0.10112197	      0.25288639	      1.77189505	     -0.08945845	      0.46230675	      1.77189505	     -0.06223267	      0.46230675	      1.45920769	     -0.05056371	      0.38773378	      1.35497857	     -0.03111361	      0.29452708	      1.25074945	     -0.38894196	      2.15090335	      9.27505760	      0.00000000	      0.00000000	     17.15482142	      3.50520376	      0.70121363	    -10.47410884	    -13.37239665	     23.11881649	     54.32016287	     78.23672590	      1.91288456	     12.51523116	      3.30394065	    -18.72173608	     58.71587630	     48.38886591	     89.33672390	     -6.64196065	     17.95280258
      3.16949153	     -1.78257755	     -2.72987902	     85.59043193	      0.26030834	      0.87596077	      0.63847780	     -3.78362685	     -0.67882164	    -17.22989559	      8.04734440	      0.14045266	     24.73880270	     17.30141574	      0.00000000	     -1.42947781	     -3.65111357	     -2.95072064	     13.33637560	      0.23276366	     24.51288195	      2.94611993	      0.00000000	     -0.09450089	      0.20495290	      1.91247604	     -0.17549761	      0.27258735	      2.03200579	     -0.15525552	      0.49832247	      2.03200579	     -0.10800507	      0.49832247	      1.67341653	     -0.08775353	      0.41793995	      1.55388678	     -0.05399781	      0.31747204	      1.43435703	     -0.67501043	      2.31846816	     10.63661798	      0.00000000	      0.00000000	     16.08668217	      2.77386430	     -1.19768419	    -11.47835751	    -12.85107697	     21.22253807	     54.38521459	     78.56046252	      2.23507077	     12.51206334	      4.27636689	    -18.67088046	     60.43658731	     48.30916863	     89.33613291	     -5.46012055	     18.56219198
      3.18644068	     -1.71677744	     -2.27204516	     85.60353356	      0.26282809	      0.87647756	      0.63690931	     -4.36767919	     -0.48361815	    -17.43305551	      8.08554119	      0.14111932	     24.81821887	     17.17810564	      0.00000000	     -2.08282262	     -3.81830937	     -2.83455573	     13.16783393	      0.22982206	     24.48137719	      3.05142639	      0.00000000	     -0.12929592	      0.22001090	      2.00305277	     -0.24011546	      0.29261450	      2.12824357	     -0.21242027	      0.53493451	      2.12824357	     -0.14777231	      0.53493451	      1.75267117	     -0.12006419	      0.44864624	      1.62748038	     -0.07387969	      0.34079689	      1.50228958	     -0.92354784	      2.48880735	     11.14037860	      0.00000000	      0.00000000	     14.75233494	      2.75979237	     -1.77469105	    -11.78361024	    -12.67604018	     20.84963164	     54.30641173	     78.56122059	      2.20903264	     12.57196680	      4.29055847	    -18.79725676	     60.55307669	     48.74476402	     89.34433568	     -5.34609241	     18.54868292
      3.20338983	     -1.65918597	     -1.69977337	     85.39894646	      0.26500576	      0.87728179	      0.63546727	     -5.14649439	     -0.34627671	    -17.07876176	      7.86343669	      0.13724286	     24.76194081	     17.26644475	      0.00000000	     -3.04859295	     -3.90727527	     -3.06307922	     12.61152127	      0.22011257	     24.43725712	      3.26314391	      0.00000000	     -0.17571439	      0.22865697	      2.30796623	     -0.32631919	      0.30411377	      2.45221412	     -0.28868117	      0.55595656	      2.45221412	     -0.20082397	      0.55595656	      2.01947045	     -0.16316838	      0.46627729	      1.87522256	     -0.10040320	      0.35418965	      1.73097467	     -1.25511030	      2.58661337	     12.83621578	      0.00000000	      0.00000000	     13.45825587	      1.64576254	     -4.94771911	    -13.01821004	    -11.75700432	     17.52222840	     54.61453450	     80.09299566	      3.25089588	     13.61825340	      5.48905753	    -18.67523438	     62.83868244	     48.71560773	     89.34354402	     -4.23120497	     19.23193873
      3.22033898	     -1.62847215	     -1.29104112	     85.40772827	      0.26689559	      0.87778682	      0.63477574	     -5.66843102	     -0.21623554	    -17.07749252	      7.77070974	      0.13562447	     24.90168311	     17.32765374	      0.00000000	     -3.70191699	     -3.97885279	     -2.83658478	     12.19485522	      0.21284038	     24.54440240	      3.41629212	      0.00000000	     -0.21022743	      0.23094063	      2.42050058	     -0.39041336	      0.30715104	      2.57178186	     -0.34538265	      0.56150905	      2.57178186	     -0.24026893	      0.56150905	      2.11793801	     -0.19521719	      0.47093414	      1.96665672	     -0.12012395	      0.35772704	      1.81537543	     -1.50163351	      2.61244663	     13.46209806	      0.00000000	      0.00000000	     12.30094302	      1.15273749	     -6.62407261	    -13.34583478	    -11.44453124	     16.59499612	     54.72843666	     80.25696150	      3.44188059	     14.18767273	      5.25344282	    -18.78419099	     62.34933640	     49.31827443	     89.33883999	     -4.14720961	     19.21854898
      3.23728814	     -1.57314758	     -1.04394689	     85.25723301	      0.26861553	      0.87792151	      0.63467515	     -5.91053541	     -0.10497448	    -16.89074024	      7.83713038	      0.13678373	     25.23206372	     17.36893828	      0.00000000	     -4.12560901	     -4.04728427	     -2.56705503	     11.89016396	      0.20752251	     24.77811483	      3.39214434	      0.00000000	     -0.23189154	      0.23887647	      2.53288186	     -0.43064577	      0.31770571	      2.69118698	     -0.38097461	      0.58080426	      2.69118698	     -0.26502884	      0.58080426	      2.21627163	     -0.21533448	      0.48711690	      2.05796651	     -0.13250282	      0.37001966	      1.89966140	     -1.65637806	      2.70221844	     14.08712906	      0.00000000	      0.00000000	     11.39144453	      0.40636084	     -7.94871758	    -13.69391402	    -11.07078233	     15.11111183	     55.04412462	     81.40135175	      4.50153296	     15.22734065	      4.67923303	    -18.86762755	     60.96439791	     50.21766907	     89.32625323	     -3.36322378	     19.68148185
      3.25423729	     -1.57491485	     -0.86497633	     85.18354244	      0.27007942	      0.87805528	      0.63479487	     -6.12137722	     -0.03255479	    -16.81167194	      7.77512942	      0.13570161	     25.46324144	     17.42638204	      0.00000000	     -4.50895629	     -4.05276039	     -2.20870782	     11.43414055	      0.19956340	     24.92147512	      3.46075199	      0.00000000	     -0.25017494	      0.23984661	      2.57568955	     -0.46459988	      0.31899599	      2.73667015	     -0.41101241	      0.58316305	      2.73667015	     -0.28592494	      0.58316305	      2.25372836	     -0.23231245	      0.48909521	      2.09274776	     -0.14294996	      0.37152240	      1.93176717	     -1.78697459	      2.71319283	     14.32521259	      0.00000000	      0.00000000	     10.66080800	      0.04881824	     -8.60291990	    -13.75276181	    -10.91608191	     14.56176636	     55.17938699	     81.89781349	      4.88837628	     15.51477604	      3.80379743	    -19.05580724	     59.23835685	     51.38060495	     89.27006574	     -3.13210348	     19.77831369
      3.27118644	     -1.57986126	     -0.89959379	     85.08464559	      0.27140744	      0.87777836	      0.63525443	     -6.03593142	      0.03214420	    -16.64428679	      7.81739020	      0.13643920	     25.77372444	     17.41088682	      0.00000000	     -4.55812589	     -4.05913593	     -1.80299818	     11.18989513	      0.19530051	     25.06855326	      3.17911350	      0.00000000	     -0.24380270	      0.24399318	      2.55434566	     -0.45276600	      0.32451092	      2.71399226	     -0.40054346	      0.59324501	      2.71399226	     -0.27864211	      0.59324501	      2.23505245	     -0.22639519	      0.49755088	      2.07540585	     -0.13930886	      0.37794543	      1.91575925	     -1.74145831	      2.76009960	     14.20650426	      0.00000000	      0.00000000	     10.22155302	     -0.38343972	     -8.50061632	    -13.57834295	    -10.95430072	     14.44316542	     55.28675769	     82.94702081	      5.77951880	     15.88161214	      2.15364699	    -19.12801220	     55.65001885	     52.98008945	     89.21503819	     -2.13844683	     20.65065582
      3.28813559	     -1.62134245	     -1.02621094	     85.06032316	      0.27229150	      0.87740810	      0.63594873	     -5.82996228	      0.04911422	    -16.54084058	      7.86401306	      0.13725292	     25.98014350	     17.35727501	      0.00000000	     -4.46265885	     -4.02612543	     -1.32385741	     10.99506532	      0.19190009	     25.14414557	      2.71265776	      0.00000000	     -0.22628168	      0.24829738	      2.48245622	     -0.42022770	      0.33023551	      2.63760973	     -0.37175817	      0.60371024	      2.63760973	     -0.25861733	      0.60371024	      2.17214919	     -0.21012517	      0.50632801	      2.01699568	     -0.12929735	      0.38461263	      1.86184216	     -1.61630740	      2.80878957	     13.80667674	      0.00000000	      0.00000000	      9.99031493	     -0.55403472	     -7.88105918	    -13.24833705	    -11.23757069	     14.97548243	     55.31265452	     83.69811224	      6.44954306	     15.82025081	      0.59790435	    -19.18471876	     52.31839869	     54.74604966	     89.11664705	     -0.87320627	     21.75195520
